<?xml version="1.0" encoding="utf-8"?>
<!-- Generator: Adobe Illustrator 16.0.0, SVG Export Plug-In . SVG Version: 6.00 Build 0)  -->
<!DOCTYPE svg PUBLIC "-//W3C//DTD SVG 1.1//EN" "http://www.w3.org/Graphics/SVG/1.1/DTD/svg11.dtd">
<svg version="1.1" id="Слой_1" xmlns="http://www.w3.org/2000/svg" xmlns:xlink="http://www.w3.org/1999/xlink" x="0px" y="0px"
	 width="57px" height="57px" viewBox="0 0 57 57" enable-background="new 0 0 57 57" xml:space="preserve">
<rect x="28.5" y="0.602" fill="none" width="0.961" height="2.775"/>
<rect x="28" width="1" height="3"/>
<rect x="28" y="54" width="1" height="3"/>
<rect x="54" y="28" width="3" height="1"/>
<rect y="28" width="3" height="1"/>
<rect x="51.383" y="13.5" transform="matrix(0.4999 0.8661 -0.8661 0.4999 38.9367 -37.433)" width="1" height="3"/>
<rect x="4.617" y="40.5" transform="matrix(0.4995 0.8663 -0.8663 0.4995 38.9464 16.588)" width="1.001" height="3"/>
<rect x="41.499" y="3.617" transform="matrix(0.8663 0.4995 -0.4995 0.8663 8.1707 -20.2948)" width="1.001" height="3"/>
<rect x="14.499" y="50.383" transform="matrix(0.8663 0.4995 -0.4995 0.8663 27.9206 -0.5565)" width="1.001" height="3"/>
<rect x="4.617" y="13.5" transform="matrix(-0.4999 0.8661 -0.8661 -0.4999 20.6664 18.0669)" width="1" height="3"/>
<rect x="51.382" y="40.5" transform="matrix(-0.4995 0.8663 -0.8663 -0.4995 114.1834 18.032)" width="1.001" height="3"/>
<rect x="14.499" y="3.617" transform="matrix(-0.8663 0.4995 -0.4995 -0.8663 30.5506 2.0574)" width="1.001" height="3"/>
<rect x="41.499" y="50.383" transform="matrix(-0.8663 0.4995 -0.4995 -0.8663 104.3006 75.8508)" width="1.001" height="3"/>
<circle cx="28.5" cy="28.5" r="2.5"/>
<rect x="28" y="12" width="1" height="16.5"/>
<rect x="18.375" y="22.154" transform="matrix(0.5 0.866 -0.866 0.5 32.1818 -10.4317)" width="13.5" height="1"/>
</svg>
