<?xml version="1.0" encoding="utf-8"?>
<!-- Generator: Adobe Illustrator 16.0.0, SVG Export Plug-In . SVG Version: 6.00 Build 0)  -->
<!DOCTYPE svg PUBLIC "-//W3C//DTD SVG 1.1//EN" "http://www.w3.org/Graphics/SVG/1.1/DTD/svg11.dtd">
<svg version="1.1" id="Слой_1" xmlns="http://www.w3.org/2000/svg" xmlns:xlink="http://www.w3.org/1999/xlink" x="0px" y="0px"
	 width="82px" height="45px" viewBox="0 0 82 45" enable-background="new 0 0 82 45" xml:space="preserve">
<g opacity="0.6">
	<g>
		<rect x="22.159" fill="none" width="46.816" height="23.315"/>
		<path fill="#53A1D0" d="M62.674,4.501c-7.174-5.958-28.212-5.317-36.334,0c-6.661,4.361-2.969,6.226-2.183,14.269
			c0.411,4.205,10.973,2.902,14.934,2.724c6.708-0.303,12.403-4.281,25.679,1.479C67.257,24.051,73.211,13.256,62.674,4.501"/>
	</g>
</g>
<g opacity="0.79">
	<g>
		<rect x="14.542" y="4.795" fill="none" width="46.816" height="23.316"/>
		<path fill="#AAD04B" d="M20.846,23.61c7.172,5.959,28.21,5.317,36.332,0c6.662-4.361,2.971-6.226,2.184-14.269
			C58.95,5.137,48.389,6.439,44.427,6.618C37.719,6.92,32.024,10.898,18.75,5.139C16.261,4.061,10.307,14.855,20.846,23.61"/>
	</g>
</g>
<path d="M37.913,41.263v2.359h0.34v-0.285l0.818-1.253c0.018-0.028,0.031-0.059,0.09-0.177c-0.01,0.172-0.018,0.099-0.018,0.267
	v1.448h0.34v-2.359h-0.34v0.249l-0.818,1.267c-0.023,0.035-0.078,0.154-0.091,0.182c0.005-0.127,0.018-0.108,0.018-0.24v-1.457
	H37.913z M38.943,40.676c-0.008,0.182-0.149,0.223-0.232,0.223c-0.081,0-0.222-0.041-0.231-0.223h-0.3
	c0.015,0.146,0.087,0.263,0.168,0.337c0.073,0.063,0.191,0.117,0.363,0.117c0.11,0,0.251-0.019,0.364-0.117
	c0.081-0.074,0.154-0.19,0.167-0.337H38.943z M34.807,42.491h0.436c0.114,0,0.227,0.043,0.3,0.109
	c0.091,0.092,0.101,0.21,0.101,0.309c0,0.11-0.01,0.229-0.101,0.322c-0.096,0.105-0.204,0.11-0.3,0.11h-0.436V42.491z
	 M34.467,41.263v2.359h0.839c0.118,0,0.35-0.013,0.521-0.177c0.168-0.158,0.188-0.362,0.188-0.544c0-0.173-0.019-0.35-0.188-0.514
	c-0.162-0.158-0.348-0.176-0.521-0.176h-0.499v-0.949H34.467z M36.196,43.622h0.34v-2.359h-0.34V43.622z M31.545,41.263v2.359h0.342
	v-1.098h0.854v1.098h0.34v-2.359h-0.34v0.979h-0.854v-0.979H31.545z M28.615,41.263v2.359h0.342v-1.098h0.854v1.098h0.34v-2.359
	h-0.34v0.979h-0.854v-0.979H28.615z M26.012,41.263v2.359h1.404v-0.28h-1.062v-0.8h0.821V42.26h-0.821v-0.717h1.035v-0.28H26.012z
	 M23.583,43.342v-0.817h0.327c0.122,0,0.262,0.01,0.368,0.086c0.126,0.095,0.146,0.231,0.146,0.327c0,0.113-0.02,0.246-0.15,0.332
	c-0.078,0.05-0.194,0.072-0.305,0.072H23.583z M23.583,42.242v-0.703h0.373c0.085,0,0.191,0.004,0.272,0.068
	c0.096,0.071,0.108,0.189,0.108,0.272c0,0.163-0.058,0.254-0.118,0.294c-0.071,0.056-0.217,0.068-0.3,0.068H23.583z M23.243,41.263
	v2.359h0.73c0.164,0,0.34-0.003,0.521-0.113c0.209-0.123,0.3-0.308,0.3-0.549c0-0.214-0.076-0.381-0.185-0.474
	c-0.096-0.075-0.237-0.111-0.332-0.116c0.1-0.02,0.227-0.068,0.299-0.141c0.073-0.073,0.123-0.196,0.123-0.368
	c0-0.276-0.136-0.45-0.269-0.522c-0.122-0.068-0.282-0.076-0.476-0.076H23.243z M20.708,41.263v0.276h0.562v2.083h0.342v-2.083
	h0.577v-0.276H20.708z M19.485,42.842c-0.01,0.067-0.032,0.173-0.063,0.259c-0.086,0.244-0.242,0.282-0.36,0.282
	c-0.272,0-0.368-0.169-0.426-0.337c-0.083-0.228-0.091-0.368-0.091-0.577c0-0.204,0.008-0.44,0.091-0.645
	c0.118-0.305,0.304-0.322,0.413-0.322c0.113,0,0.267,0.018,0.358,0.246c0.032,0.086,0.064,0.23,0.078,0.295l0.335-0.083
	c-0.036-0.244-0.159-0.517-0.354-0.64c-0.108-0.067-0.292-0.108-0.417-0.108c-0.204,0-0.413,0.081-0.544,0.199
	c-0.164,0.146-0.337,0.45-0.337,1.03c0,0.669,0.214,0.923,0.277,0.991c0.141,0.149,0.363,0.239,0.609,0.239
	c0.171,0,0.353-0.053,0.476-0.148c0.146-0.113,0.245-0.314,0.29-0.609L19.485,42.842z M16.024,41.539h0.204
	c0.5,0,0.503,0.245,0.503,0.426c0,0.199,0.028,0.437-0.503,0.437h-0.204V41.539z M15.684,41.263v2.359h0.34v-0.939h0.204
	c0.319,0,0.886-0.05,0.886-0.735c0-0.586-0.499-0.685-0.886-0.685H15.684z M13.962,42.688h-0.549l0.277-1.09L13.962,42.688z
	 M13.522,41.263l-0.7,2.359h0.34l0.181-0.662h0.691l0.182,0.662h0.345l-0.667-2.359H13.522z M10.723,41.543h0.572v1.807h-0.952
	c0.136-0.259,0.227-0.604,0.262-0.763c0.083-0.372,0.096-0.707,0.11-0.911L10.723,41.543z M10.419,41.263l-0.003,0.072
	c-0.01,0.177,0.003,0.268-0.02,0.517c-0.018,0.236-0.068,0.531-0.113,0.728c-0.091,0.391-0.217,0.63-0.295,0.763H9.829v0.881h0.332
	v-0.601h1.388v0.601h0.332v-0.881h-0.245v-2.079H10.419z M7.526,41.263l0.758,1.815c-0.013,0.045-0.045,0.136-0.096,0.195
	c-0.081,0.1-0.181,0.109-0.254,0.109c-0.054,0-0.104-0.01-0.159-0.028v0.29c0.027,0.005,0.108,0.027,0.196,0.027
	c0.186,0,0.317-0.075,0.394-0.158c0.065-0.068,0.133-0.187,0.246-0.509l0.604-1.742H8.906l-0.473,1.385H8.425l-0.549-1.385H7.526z
	 M6.295,42.842c-0.01,0.067-0.032,0.173-0.065,0.259c-0.086,0.244-0.24,0.282-0.358,0.282c-0.272,0-0.368-0.169-0.427-0.337
	c-0.081-0.228-0.091-0.368-0.091-0.577c0-0.204,0.01-0.44,0.091-0.645c0.118-0.305,0.304-0.322,0.413-0.322
	c0.114,0,0.269,0.018,0.36,0.246c0.032,0.086,0.063,0.23,0.078,0.295L6.63,41.96c-0.035-0.244-0.159-0.517-0.354-0.64
	c-0.108-0.067-0.29-0.108-0.418-0.108c-0.204,0-0.413,0.081-0.544,0.199c-0.164,0.146-0.335,0.45-0.335,1.03
	c0,0.669,0.212,0.923,0.277,0.991c0.141,0.149,0.363,0.239,0.607,0.239c0.173,0,0.355-0.053,0.478-0.148
	c0.144-0.113,0.245-0.314,0.29-0.609L6.295,42.842z M2.938,41.502c0.101,0,0.201,0,0.309,0.128c0.109,0.123,0.199,0.354,0.199,0.812
	c0,0.322-0.045,0.646-0.199,0.813c-0.095,0.104-0.191,0.128-0.304,0.128c-0.118,0-0.214-0.023-0.31-0.128
	c-0.154-0.167-0.199-0.491-0.199-0.813c0-0.458,0.091-0.688,0.199-0.812C2.734,41.512,2.82,41.502,2.938,41.502 M2.948,41.212
	c-0.201,0-0.428,0.073-0.577,0.217c-0.246,0.237-0.314,0.678-0.314,1.013c0,0.337,0.068,0.777,0.314,1.014
	c0.149,0.145,0.376,0.217,0.577,0.217c0.231,0,0.436-0.09,0.572-0.227c0.287-0.285,0.304-0.822,0.304-1.004
	s-0.018-0.716-0.304-1.003C3.383,41.303,3.179,41.212,2.948,41.212 M0,41.263v2.359h0.34v-2.083h0.949v-0.276H0z"/>
<path d="M80.847,41.263h-0.34v2.359h0.34v-1.048h0.227c0.073,0,0.177,0.018,0.241,0.059c0.117,0.082,0.127,0.236,0.142,0.367
	c0.018,0.169,0.021,0.255,0.035,0.332c0.018,0.096,0.059,0.187,0.123,0.236c0.063,0.051,0.164,0.068,0.24,0.068
	c0.055,0,0.101-0.01,0.146-0.027v-0.26c-0.086,0.005-0.141-0.013-0.177-0.067c-0.032-0.051-0.037-0.127-0.042-0.209
	c-0.003-0.091-0.018-0.272-0.049-0.363c-0.05-0.148-0.178-0.259-0.332-0.295v-0.009c0.209-0.063,0.245-0.182,0.277-0.322
	c0.035-0.164,0.035-0.26,0.045-0.363c0.005-0.06,0.015-0.131,0.073-0.168c0.036-0.023,0.104-0.036,0.154-0.033v-0.257
	c-0.169-0.037-0.437-0.023-0.504,0.285c-0.032,0.136-0.015,0.178-0.046,0.382c-0.013,0.099-0.045,0.194-0.123,0.272
	c-0.086,0.081-0.171,0.09-0.262,0.09h-0.169V41.263z M77.765,41.263v2.359h0.34v-0.285l0.818-1.253
	c0.018-0.028,0.03-0.059,0.091-0.177c-0.01,0.172-0.018,0.099-0.018,0.267v1.448h0.34v-2.359h-0.34v0.249l-0.818,1.267
	c-0.022,0.035-0.078,0.154-0.091,0.182c0.005-0.127,0.018-0.108,0.018-0.24v-1.457H77.765z M75.056,41.263v2.359h0.34v-1.098h0.854
	v1.098h0.34v-2.359h-0.34v0.979h-0.854v-0.979H75.056z M72.945,41.543h0.571v1.807h-0.954c0.136-0.259,0.227-0.604,0.264-0.763
	c0.081-0.372,0.096-0.707,0.109-0.911L72.945,41.543z M72.641,41.263l-0.005,0.072c-0.01,0.177,0.005,0.268-0.018,0.517
	c-0.019,0.236-0.068,0.531-0.114,0.728c-0.09,0.391-0.218,0.63-0.294,0.763h-0.159v0.881h0.33v-0.601h1.39v0.601h0.332v-0.881
	h-0.246v-2.079H72.641z M69.989,41.263v2.359h1.402v-0.28h-1.062v-0.8h0.823V42.26h-0.823v-0.717h1.037v-0.28H69.989z
	 M67.775,43.342v-0.817h0.327c0.121,0,0.262,0.01,0.367,0.086c0.127,0.095,0.145,0.231,0.145,0.327c0,0.113-0.018,0.246-0.149,0.332
	c-0.077,0.05-0.195,0.072-0.305,0.072H67.775z M67.775,42.242v-0.703h0.371c0.087,0,0.19,0.004,0.273,0.068
	c0.096,0.071,0.108,0.189,0.108,0.272c0,0.163-0.059,0.254-0.118,0.294c-0.073,0.056-0.217,0.068-0.3,0.068H67.775z M67.434,41.263
	v2.359h0.731c0.164,0,0.341-0.003,0.521-0.113c0.209-0.123,0.3-0.308,0.3-0.549c0-0.214-0.077-0.381-0.186-0.474
	c-0.096-0.075-0.237-0.111-0.331-0.116c0.099-0.02,0.227-0.068,0.298-0.141c0.073-0.073,0.123-0.196,0.123-0.368
	c0-0.276-0.136-0.45-0.267-0.522c-0.123-0.068-0.282-0.076-0.478-0.076H67.434z M65.491,41.502c0.101,0,0.199,0,0.31,0.128
	C65.909,41.753,66,41.983,66,42.441c0,0.322-0.045,0.646-0.199,0.813c-0.096,0.104-0.191,0.128-0.305,0.128
	c-0.118,0-0.214-0.023-0.31-0.128c-0.153-0.167-0.198-0.491-0.198-0.813c0-0.458,0.09-0.688,0.198-0.812
	C65.287,41.512,65.373,41.502,65.491,41.502 M65.501,41.212c-0.2,0-0.428,0.073-0.578,0.217c-0.244,0.237-0.312,0.678-0.312,1.013
	c0,0.337,0.068,0.777,0.312,1.014c0.15,0.145,0.378,0.217,0.578,0.217c0.231,0,0.436-0.09,0.572-0.227
	c0.286-0.285,0.304-0.822,0.304-1.004s-0.018-0.716-0.304-1.003C65.937,41.303,65.732,41.212,65.501,41.212 M62.015,41.263v2.359
	h0.34v-2.079h0.854v2.079h0.342v-2.359H62.015z M60.463,42.688h-0.549l0.276-1.09L60.463,42.688z M60.022,41.263l-0.7,2.359h0.34
	l0.184-0.662h0.689l0.182,0.662h0.345l-0.667-2.359H60.022z M57.386,42.552h0.28c0.109,0,0.228,0.01,0.332,0.091
	c0.1,0.077,0.163,0.204,0.163,0.35c0,0.126-0.05,0.222-0.108,0.281c-0.105,0.104-0.241,0.117-0.345,0.117
	c-0.11,0-0.246-0.013-0.342-0.126c-0.068-0.078-0.108-0.209-0.113-0.332l-0.336,0.042c0.009,0.189,0.091,0.394,0.228,0.526
	c0.158,0.153,0.35,0.171,0.549,0.171c0.158,0,0.433-0.022,0.622-0.176c0.095-0.078,0.224-0.236,0.224-0.499
	c0-0.196-0.068-0.332-0.151-0.423c-0.067-0.078-0.177-0.15-0.317-0.177v-0.005c0.146-0.045,0.241-0.133,0.295-0.209
	c0.073-0.1,0.091-0.205,0.091-0.322c0-0.214-0.059-0.385-0.222-0.508c-0.091-0.068-0.246-0.142-0.504-0.142
	c-0.269,0-0.438,0.091-0.536,0.182c-0.105,0.096-0.204,0.264-0.227,0.468l0.335,0.051c0.015-0.101,0.055-0.224,0.131-0.305
	c0.073-0.078,0.161-0.113,0.282-0.113c0.083,0,0.187,0.018,0.269,0.096c0.096,0.089,0.108,0.194,0.108,0.285
	c0,0.1-0.01,0.213-0.118,0.304c-0.1,0.081-0.227,0.091-0.335,0.091h-0.254V42.552z M55.052,42.605h1.036v-0.28h-1.036V42.605z
	 M52.46,41.263v2.359h0.341v-0.285l0.817-1.253c0.018-0.028,0.031-0.059,0.091-0.177c-0.01,0.172-0.018,0.099-0.018,0.267v1.448
	h0.34v-2.359h-0.34v0.249l-0.818,1.267c-0.022,0.035-0.077,0.154-0.091,0.182c0.005-0.127,0.019-0.108,0.019-0.24v-1.457H52.46z
	 M53.49,40.676c-0.008,0.182-0.149,0.223-0.231,0.223c-0.081,0-0.222-0.041-0.231-0.223h-0.3c0.015,0.146,0.087,0.263,0.168,0.337
	c0.073,0.063,0.191,0.117,0.363,0.117c0.11,0,0.251-0.019,0.364-0.117c0.081-0.074,0.154-0.19,0.167-0.337H53.49z M50.078,41.263
	v2.359h1.402v-0.28h-1.062v-0.8h0.821V42.26h-0.821v-0.717h1.035v-0.28H50.078z M47.867,42.552h0.281
	c0.109,0,0.228,0.01,0.331,0.091c0.101,0.077,0.163,0.204,0.163,0.35c0,0.126-0.05,0.222-0.108,0.281
	c-0.104,0.104-0.241,0.117-0.345,0.117c-0.108,0-0.245-0.013-0.34-0.126c-0.068-0.078-0.11-0.209-0.113-0.332l-0.337,0.042
	c0.01,0.189,0.09,0.394,0.227,0.526c0.158,0.153,0.35,0.171,0.551,0.171c0.158,0,0.431-0.022,0.622-0.176
	c0.094-0.078,0.222-0.236,0.222-0.499c0-0.196-0.068-0.332-0.151-0.423c-0.067-0.078-0.176-0.15-0.317-0.177v-0.005
	c0.146-0.045,0.242-0.133,0.295-0.209c0.073-0.1,0.093-0.205,0.093-0.322c0-0.214-0.061-0.385-0.224-0.508
	c-0.091-0.068-0.245-0.142-0.504-0.142c-0.268,0-0.436,0.091-0.536,0.182c-0.104,0.096-0.204,0.264-0.227,0.468l0.335,0.051
	c0.015-0.101,0.056-0.224,0.133-0.305c0.073-0.078,0.159-0.113,0.28-0.113c0.083,0,0.188,0.018,0.27,0.096
	c0.095,0.089,0.108,0.194,0.108,0.285c0,0.1-0.009,0.213-0.118,0.304c-0.1,0.081-0.228,0.091-0.336,0.091h-0.254V42.552z
	 M45.09,41.263l0.758,1.815c-0.015,0.045-0.046,0.136-0.096,0.195c-0.081,0.1-0.182,0.109-0.254,0.109
	c-0.056,0-0.104-0.01-0.159-0.028v0.29c0.027,0.005,0.108,0.027,0.196,0.027c0.185,0,0.317-0.075,0.394-0.158
	c0.064-0.068,0.133-0.187,0.246-0.509l0.604-1.742H46.47l-0.474,1.385h-0.008l-0.549-1.385H45.09z M42.279,41.263v2.359h0.29v-1.979
	l0.596,1.979h0.204l0.603-1.984v1.984h0.314v-2.359h-0.473l-0.526,1.783l-0.526-1.783H42.279z"/>
<path d="M30.068,5.534c0,0,22.876,0.008,23.178,0.008V4.544H27.791v19.002h-6.998l0.261,0.246h35.831l0.37-0.246h-4.066V10.064
	H36.162v0.667c0.3,0,15.592-0.006,15.592-0.006v12.822h-3.307v-6.059h-9.17v0.36c0.16,0,8.398-0.003,8.398-0.003v5.702H37.176v-8.46
	c0,0,10.997,0.005,11.212,0.005V14.61H36.146v8.937h-6.078V5.534z"/>
<path d="M38.277,33.848v-4.154c0.182,0.002,0.927,0.009,1.103,0.01v8.84c-0.176,0-0.923,0.003-1.103,0.005v-4.355h-8.051
	c-2.475,0-3.894-0.859-3.894-2.359v-1.43h1.072v1.456c0,0.962,0.732,1.988,2.786,1.988H38.277z"/>
<path d="M53.623,29.7v8.835h-1.102V30.03c0,0-10.731,8.459-10.796,8.51h-1.169V29.7h1.092v8.42c0,0,10.731-8.37,10.796-8.42H53.623z
	"/>
<path d="M67.605,29.69v7l-1.094,1.25v-3.746h-10.82v4.352h-1.072v-8.854h1.072v4.145h10.822c0,0-0.01-3.922-0.01-4.146H67.605z"/>
<path d="M74.525,29.692c0.07,0.082,7.16,8.483,7.475,8.855h-1.045c-0.069-0.081-2.642-3.097-2.642-3.097H70.13
	c0,0-2.563,3.016-2.634,3.097h-1.031c0.312-0.372,7.352-8.773,7.421-8.855H74.525z M70.331,35.092h7.674l-3.785-4.57L70.331,35.092z
	"/>
<polygon points="13.302,29.69 12.968,30.066 1.208,30.062 1.208,38.545 0.136,38.545 0.136,29.69 "/>
<path d="M27.438,29.69v0.362c-0.227,0-5.601-0.037-5.601-0.037v7.909l-1.072-1.278v-6.631l-5.638,0.037l-0.273-0.362H27.438z"/>
<path d="M14.389,29.69c0.069,0.083,7.16,8.483,7.474,8.855H20.82c-0.07-0.08-2.643-3.097-2.643-3.097H9.995
	c0,0-2.565,3.017-2.635,3.097H6.33c0.311-0.372,7.35-8.772,7.419-8.855H14.389z M10.194,35.092h7.675l-3.787-4.572L10.194,35.092z"
	/>
</svg>
