<?xml version="1.0" encoding="utf-8"?>
<!-- Generator: Adobe Illustrator 16.0.0, SVG Export Plug-In . SVG Version: 6.00 Build 0)  -->
<!DOCTYPE svg PUBLIC "-//W3C//DTD SVG 1.1//EN" "http://www.w3.org/Graphics/SVG/1.1/DTD/svg11.dtd">
<svg version="1.1" id="Слой_1" xmlns="http://www.w3.org/2000/svg" xmlns:xlink="http://www.w3.org/1999/xlink" x="0px" y="0px"
	 width="32px" height="32px" viewBox="0 0 32 32" enable-background="new 0 0 32 32" xml:space="preserve">
<g>
	<path d="M9.435,25.572c2.017,2.051,3.891,4.182,5.623,6.393l1.709-1.025c-2.461-5.242-5.799-10.242-10.015-15.006
		C11.286,10.67,14.625,5.727,16.767,1.1l-1.709-1.264c-1.755,2.209-3.64,4.352-5.657,6.424c-2.017,2.074-5.03,4.957-9.041,8.648
		v2.016C4.394,20.639,7.418,23.521,9.435,25.572z M20.1,21.471c1.788,1.596,3.093,2.758,3.913,3.486
		c0.82,0.73,1.709,1.584,2.666,2.562c0.957,0.98,1.846,1.996,2.666,3.043l1.675-1.025c-1.071-2.277-2.358-4.465-3.862-6.562
		c-1.504-2.096-3.407-4.443-5.708-7.041c2.027-2.348,3.674-4.551,4.939-6.613c1.264-2.062,2.58-4.564,3.947-7.502l-1.675-1.266
		c-2.028,2.576-3.88,4.764-5.554,6.562c-1.676,1.801-4.358,4.398-8.05,7.793v2.016C16.63,18.361,18.311,19.877,20.1,21.471z"/>
</g>
</svg>
