<?xml version="1.0" encoding="utf-8"?>
<!-- Generator: Adobe Illustrator 16.0.0, SVG Export Plug-In . SVG Version: 6.00 Build 0)  -->
<!DOCTYPE svg PUBLIC "-//W3C//DTD SVG 1.1//EN" "http://www.w3.org/Graphics/SVG/1.1/DTD/svg11.dtd">
<svg version="1.1" id="Слой_1" xmlns="http://www.w3.org/2000/svg" xmlns:xlink="http://www.w3.org/1999/xlink" x="0px" y="0px"
	 width="20px" height="29px" viewBox="0 0 20 29" enable-background="new 0 0 20 29" xml:space="preserve" >
<g>
	<g>
		<path fill="#fff" fill-rule="evenodd" clip-rule="evenodd" d="M15.459,22c-0.824,0-1.572,0.297-2.17,0.773l-6.686-6.687
			C6.849,15.608,7,15.074,7,14.5c0-0.569-0.148-1.099-0.39-1.573l6.69-6.69C13.896,6.707,14.641,7,15.459,7
			c1.933,0,3.5-1.566,3.5-3.5c0-1.932-1.567-3.5-3.5-3.5s-3.5,1.568-3.5,3.5c0,0.753,0.242,1.446,0.646,2.017L6.03,12.092
			c-0.638-0.669-1.533-1.091-2.53-1.091c-1.933,0-3.5,1.564-3.5,3.498C0,16.434,1.567,18,3.5,18c0.979,0,1.862-0.404,2.498-1.053
			l6.575,6.575c-0.386,0.563-0.614,1.243-0.614,1.978c0,1.932,1.567,3.502,3.5,3.502s3.5-1.57,3.5-3.502
			C18.959,23.566,17.392,22,15.459,22z"/>
	</g>
</g>
</svg>
