<?xml version="1.0" encoding="utf-8"?>
<!-- Generator: Adobe Illustrator 16.0.0, SVG Export Plug-In . SVG Version: 6.00 Build 0)  -->
<!DOCTYPE svg PUBLIC "-//W3C//DTD SVG 1.1//EN" "http://www.w3.org/Graphics/SVG/1.1/DTD/svg11.dtd">
<svg version="1.1" id="Слой_1" xmlns="http://www.w3.org/2000/svg" xmlns:xlink="http://www.w3.org/1999/xlink" x="0px" y="0px"
	 width="20px" height="29px" viewBox="0 0 20 29" enable-background="new 0 0 20 29" xml:space="preserve">
<path d="M19.508,8.969c-0.699,0.309-1.451,0.516-2.241,0.609c0.806-0.479,1.425-1.236,1.716-2.141
	c-0.754,0.445-1.589,0.766-2.479,0.939c-0.711-0.754-1.726-1.223-2.848-1.223c-2.156,0-3.903,1.734-3.903,3.871
	c0,0.303,0.035,0.598,0.102,0.883c-3.244-0.16-6.119-1.703-8.044-4.047C1.475,8.434,1.282,9.098,1.282,9.809
	c0,1.344,0.688,2.529,1.736,3.223c-0.64-0.021-1.242-0.195-1.768-0.484C1.25,12.562,1.25,12.58,1.25,12.596
	c0,1.877,1.346,3.439,3.131,3.795c-0.328,0.09-0.672,0.137-1.028,0.137c-0.251,0-0.496-0.023-0.734-0.068
	c0.497,1.535,1.938,2.656,3.646,2.688c-1.336,1.037-3.019,1.656-4.847,1.656c-0.315,0-0.626-0.018-0.931-0.053
	c1.727,1.096,3.778,1.738,5.982,1.738c7.178,0,11.104-5.898,11.104-11.016c0-0.166-0.004-0.332-0.012-0.5
	C18.323,10.43,18.985,9.746,19.508,8.969z"/>
</svg>
