<?xml version="1.0" encoding="utf-8"?>
<!-- Generator: Adobe Illustrator 16.0.0, SVG Export Plug-In . SVG Version: 6.00 Build 0)  -->
<!DOCTYPE svg PUBLIC "-//W3C//DTD SVG 1.1//EN" "http://www.w3.org/Graphics/SVG/1.1/DTD/svg11.dtd">
<svg version="1.1" id="Слой_1" xmlns="http://www.w3.org/2000/svg" xmlns:xlink="http://www.w3.org/1999/xlink" x="0px" y="0px"
	 width="20px" height="29px" viewBox="0 0 20 29" enable-background="new 0 0 20 29" xml:space="preserve">
<path fill-rule="evenodd" clip-rule="evenodd" d="M3.116,6.504h7.098c2.335,0,4.323,1.188,4.321,3.588
	c-0.002,2.002-0.701,2.781-2.138,3.664c0.122,0.104,0.945,0.361,1.223,0.5c0.442,0.229,0.703,0.455,0.994,0.764
	c0.815,0.859,0.968,1.645,0.968,2.994c0,3.131-2.918,4.703-5.729,4.703H3.087L3.116,6.504z M6.974,10.764l-0.001,2.105
	c1.828,0,3.546,0.25,3.546-1.809c0-1.902-1.943-1.588-3.547-1.588L6.974,10.764z M6.973,19.734c2.003,0,4.478,0.34,4.521-2.02
	c0.046-2.459-2.542-2.016-4.52-2.016L6.973,19.734z"/>
</svg>
