<?xml version="1.0" encoding="utf-8"?>
<!-- Generator: Adobe Illustrator 16.0.0, SVG Export Plug-In . SVG Version: 6.00 Build 0)  -->
<!DOCTYPE svg PUBLIC "-//W3C//DTD SVG 1.1//EN" "http://www.w3.org/Graphics/SVG/1.1/DTD/svg11.dtd">
<svg version="1.1" id="Слой_1" xmlns="http://www.w3.org/2000/svg" xmlns:xlink="http://www.w3.org/1999/xlink" x="0px" y="0px"
	 width="25px" height="25px" viewBox="0 0 25 25" enable-background="new 0 0 25 25" xml:space="preserve">
<g>
	<polygon points="9.957,0.596 8.12,0.596 7.002,5.058 6.887,5.058 5.715,0.596 3.894,0.596 3.894,0.597 6.045,7.335 6.045,11.759 
		7.853,11.759 7.853,7.127 9.957,0.596 	"/>
	<path d="M10.507,11.347c0.419,0.412,0.979,0.618,1.677,0.621h0.016c0.725-0.002,1.295-0.203,1.71-0.602
		c0.415-0.399,0.623-0.952,0.623-1.657V5.453c0-0.628-0.212-1.141-0.637-1.539c-0.423-0.398-0.967-0.597-1.632-0.597
		c-0.73,0-1.311,0.188-1.742,0.566c-0.433,0.378-0.65,0.886-0.65,1.524l0.002,4.268C9.875,10.375,10.085,10.933,10.507,11.347
		L10.507,11.347z M11.527,5.346L11.527,5.346c0-0.18,0.061-0.325,0.183-0.438c0.124-0.109,0.283-0.164,0.478-0.164
		c0.212,0,0.384,0.055,0.515,0.164c0.13,0.112,0.196,0.257,0.196,0.438V9.83c0,0.221-0.064,0.395-0.192,0.52
		c-0.127,0.127-0.3,0.19-0.519,0.19c-0.211,0-0.375-0.062-0.489-0.185c-0.115-0.125-0.171-0.299-0.171-0.525V5.346L11.527,5.346z"/>
	<path d="M18.874,3.525v6.25c-0.151,0.179-0.316,0.327-0.497,0.443c-0.18,0.115-0.329,0.172-0.447,0.172
		c-0.151,0-0.259-0.043-0.326-0.131c-0.066-0.086-0.1-0.228-0.1-0.423V3.525h-1.605v6.886c0,0.488,0.094,0.854,0.281,1.1
		c0.188,0.245,0.468,0.367,0.838,0.367c0.302,0,0.612-0.087,0.933-0.262c0.32-0.175,0.628-0.431,0.924-0.765v0.909h1.604V3.525
		H18.874L18.874,3.525z"/>
	<g>
		<path d="M14.355,17.751c-0.078,0-0.154,0.02-0.231,0.056c-0.076,0.035-0.152,0.094-0.228,0.171v3.51
			c0.091,0.091,0.178,0.156,0.262,0.195c0.084,0.043,0.172,0.062,0.266,0.062c0.132,0,0.232-0.038,0.295-0.117
			s0.095-0.21,0.095-0.39v-2.905c0-0.191-0.038-0.336-0.118-0.434C14.619,17.801,14.505,17.751,14.355,17.751z"/>
		<path d="M21.329,15.619c0-1.359-1.171-2.462-2.613-2.462c-1.957-0.078-3.954-0.114-5.994-0.114c-0.106,0-0.212,0-0.319,0
			c-0.106,0-0.212,0-0.32,0c-2.036,0-4.037,0.036-5.992,0.114c-1.443,0-2.613,1.103-2.613,2.462c-0.086,1.078-0.124,2.155-0.12,3.23
			c-0.003,1.077,0.034,2.155,0.12,3.232c0,1.359,1.17,2.463,2.613,2.463c1.964,0.079,3.974,0.114,6.021,0.114
			c0.096,0,0.193,0,0.291,0c0.096,0,0.194,0,0.291,0c2.047,0,4.055-0.035,6.022-0.114c1.442,0,2.613-1.104,2.613-2.463
			c0.087-1.077,0.124-2.155,0.12-3.232C21.453,17.774,21.416,16.697,21.329,15.619z M7.321,22.558H6.085v-6.524H4.807v-1.108h3.794
			v1.108h-1.28V22.558z M11.719,22.558h-1.098v-0.62c-0.203,0.229-0.412,0.403-0.631,0.522c-0.219,0.119-0.431,0.18-0.637,0.18
			c-0.253,0-0.445-0.084-0.574-0.252C8.65,22.22,8.585,21.97,8.585,21.635v-4.707h1.098v4.314c0,0.136,0.022,0.231,0.069,0.292
			c0.046,0.058,0.121,0.089,0.224,0.089c0.08,0,0.182-0.04,0.306-0.117c0.124-0.079,0.236-0.182,0.339-0.303v-4.275h1.098V22.558z
			 M15.943,21.393c0,0.4-0.085,0.706-0.258,0.919c-0.171,0.211-0.419,0.318-0.746,0.318c-0.215,0-0.405-0.041-0.574-0.124
			c-0.166-0.081-0.322-0.209-0.469-0.379v0.431h-1.107v-7.633h1.107v2.458c0.148-0.173,0.306-0.304,0.472-0.392
			c0.168-0.089,0.336-0.135,0.506-0.135c0.347,0,0.613,0.121,0.794,0.361c0.186,0.239,0.275,0.589,0.275,1.051V21.393z
			 M20.001,19.874h-2.1v1.062c0,0.297,0.036,0.502,0.109,0.616c0.071,0.114,0.196,0.173,0.37,0.173c0.183,0,0.309-0.05,0.382-0.146
			c0.073-0.097,0.107-0.312,0.107-0.644v-0.389h1.131v0.422c0,0.576-0.137,1.01-0.412,1.304c-0.275,0.292-0.687,0.438-1.232,0.438
			c-0.492,0-0.879-0.156-1.161-0.465c-0.281-0.31-0.424-0.736-0.424-1.277v-2.527c0-0.49,0.155-0.887,0.465-1.194
			c0.311-0.309,0.711-0.462,1.203-0.462c0.501,0,0.887,0.142,1.157,0.427c0.27,0.284,0.404,0.694,0.404,1.229V19.874z"/>
		<path d="M18.394,17.771c-0.176,0-0.302,0.051-0.377,0.153c-0.077,0.103-0.115,0.271-0.115,0.507v0.571h0.969v-0.571
			c0-0.236-0.037-0.404-0.114-0.507C18.681,17.821,18.56,17.771,18.394,17.771z"/>
	</g>
</g>
</svg>
